<svg width="16" height="16" viewBox="0 0 16 16" fill="none" xmlns="http://www.w3.org/2000/svg">
<g clip-path="url(#clip0_1_16065)">
<path d="M7.99569 0.00488666C3.58003 0.0058236 0.00117395 3.58621 0.00211089 8.00188C0.00242321 9.53088 0.441195 11.0277 1.26633 12.3149L0.0224114 15.5424C-0.0438307 15.714 0.0416188 15.9069 0.213267 15.9731C0.251651 15.9879 0.292408 15.9955 0.33354 15.9955C0.371705 15.9956 0.409588 15.9891 0.445474 15.9761L3.77685 14.7868C7.525 17.1212 12.4559 15.9751 14.7903 12.2269C17.1246 8.47875 15.9786 3.54788 12.2304 1.21352C10.9598 0.422171 9.49259 0.00341878 7.99569 0.00488666Z" fill="#5D6C7B"/>
<path d="M11.8075 9.36609C11.8075 9.36609 10.9913 8.96633 10.4802 8.69983C9.90193 8.40201 9.22233 8.95968 8.90252 9.27683C8.40478 9.08563 7.95018 8.79705 7.56531 8.42799C7.19618 8.04319 6.90761 7.58858 6.71647 7.09078C7.03362 6.77031 7.58995 6.09137 7.29347 5.51306C7.03028 5.00136 6.62721 4.18519 6.62721 4.18519C6.57065 4.07294 6.45575 4.00208 6.33004 4.00195H5.66378C4.69348 4.16954 3.98799 5.01617 3.99811 6.00077C3.99811 7.04681 5.25002 9.0563 6.09421 9.90112C6.9384 10.7459 8.94787 11.9972 9.99456 11.9972C10.9792 12.0073 11.8258 11.3018 11.9934 10.3316V9.66529C11.9935 9.53824 11.9214 9.42221 11.8075 9.36609Z" fill="#F7F7F7"/>
</g>
<defs>
<clipPath id="clip0_1_16065">
<rect width="16" height="16" fill="white"/>
</clipPath>
</defs>
</svg>
